<?xml version="1.0" encoding="utf-8"?>
<!-- Generator: Adobe Illustrator 22.1.0, SVG Export Plug-In . SVG Version: 6.00 Build 0)  -->
<svg version="1.1" id="Layer_1" xmlns="http://www.w3.org/2000/svg" xmlns:xlink="http://www.w3.org/1999/xlink" x="0px" y="0px"
	 viewBox="0 0 128 128" style="enable-background:new 0 0 128 128;" xml:space="preserve">
<style type="text/css">
	.st0{fill:url(#SVGID_1_);}
</style>
<linearGradient id="SVGID_1_" gradientUnits="userSpaceOnUse" x1="64" y1="126.5" x2="64" y2="1">
	<stop  offset="0" style="stop-color:#7EA2B9"/>
	<stop  offset="0" style="stop-color:#688DA6"/>
	<stop  offset="0" style="stop-color:#6990A6"/>
	<stop  offset="1" style="stop-color:#493698"/>
</linearGradient>
<path class="st0" d="M8.8,1l10.1,112.9L64,126.5l45.2-12.6L119.2,1H8.8z M98.4,26.9L95,64.5v0.2v0.5l0,0l-2.4,26.3l-0.3,2.3
	L64,101.6l0,0l0,0l-28.3-7.9L33.8,72h13.9l1,11.1L64,87.2l0,0l0,0L79.4,83L81,65H48.8l-0.3-3l-0.6-7.1L47.6,51h34.7l1.3-14h-53
	l-0.3-3l-0.6-7.1L29.4,23h69.3C98.7,23,98.4,26.9,98.4,26.9z"/>
</svg>
