<?xml version="1.0" encoding="utf-8"?>
<!-- Generator: Adobe Illustrator 22.1.0, SVG Export Plug-In . SVG Version: 6.00 Build 0)  -->
<svg version="1.1" id="Layer_1" xmlns="http://www.w3.org/2000/svg" xmlns:xlink="http://www.w3.org/1999/xlink" x="0px" y="0px"
	 viewBox="0 0 350 350" style="enable-background:new 0 0 350 350;" xml:space="preserve">
<style type="text/css">
	.st0{fill:url(#SVGID_1_);}
	.st1{fill:url(#SVGID_2_);}
	.st2{fill:url(#SVGID_3_);}
</style>
<g>
	<linearGradient id="SVGID_1_" gradientUnits="userSpaceOnUse" x1="98.8" y1="282.5" x2="98.8" y2="2.849247e-02">
		<stop  offset="0" style="stop-color:#7EA2B9"/>
		<stop  offset="0" style="stop-color:#688DA6"/>
		<stop  offset="0" style="stop-color:#6990A6"/>
		<stop  offset="1" style="stop-color:#493698"/>
	</linearGradient>
	<path class="st0" d="M47.5,282.5l2.1-3L149.9,89.4l0.2-2l-44.2-83c-3.7-7-14.1-5.2-15.3,2.6L47.5,282.5z"/>
	<linearGradient id="SVGID_2_" gradientUnits="userSpaceOnUse" x1="182.5" y1="150.1" x2="182.5" y2="49.1374">
		<stop  offset="0" style="stop-color:#7EA2B9"/>
		<stop  offset="0" style="stop-color:#688DA6"/>
		<stop  offset="0" style="stop-color:#6990A6"/>
		<stop  offset="1" style="stop-color:#493698"/>
	</linearGradient>
	<path class="st1" d="M182.3,150.1l32.9-33.7l-32.9-62.8c-3.1-5.9-11.8-6-14.9,0l-17.6,33.5V90L182.3,150.1z"/>
	<linearGradient id="SVGID_3_" gradientUnits="userSpaceOnUse" x1="175" y1="349.975" x2="175" y2="71.442">
		<stop  offset="0" style="stop-color:#7EA2B9"/>
		<stop  offset="0" style="stop-color:#688DA6"/>
		<stop  offset="0" style="stop-color:#6990A6"/>
		<stop  offset="1" style="stop-color:#493698"/>
	</linearGradient>
	<path class="st2" d="M186.4,346.9l116.1-64.7L269.3,78.1c-1-6.4-8.9-8.9-13.4-4.3L47.5,282.5l115.4,64.4
		C170.2,351,179.1,351,186.4,346.9"/>
</g>
</svg>
