<?xml version="1.0" encoding="utf-8"?>
<!-- Generator: Adobe Illustrator 22.1.0, SVG Export Plug-In . SVG Version: 6.00 Build 0)  -->
<svg version="1.1" id="Layer_1" xmlns="http://www.w3.org/2000/svg" xmlns:xlink="http://www.w3.org/1999/xlink" x="0px" y="0px"
	 viewBox="0 0 128 128" style="enable-background:new 0 0 128 128;" xml:space="preserve">
<style type="text/css">
	.st0{fill:url(#SVGID_1_);}
</style>
<linearGradient id="SVGID_1_" gradientUnits="userSpaceOnUse" x1="63.95" y1="127.1" x2="63.95" y2="0.9">
	<stop  offset="0" style="stop-color:#7EA2B9"/>
	<stop  offset="0" style="stop-color:#688DA6"/>
	<stop  offset="0" style="stop-color:#6990A6"/>
	<stop  offset="1" style="stop-color:#493698"/>
</linearGradient>
<path class="st0" d="M124.7,58.4L69.6,3.3c-3.2-3.2-8.3-3.2-11.5,0L46.7,14.7l14.5,14.5c3.4-1.1,7.2-0.4,9.9,2.3s3.5,6.6,2.3,10
	l14,14c3.4-1.2,7.3-0.4,10,2.3c3.8,3.8,3.8,9.9,0,13.7s-9.9,3.8-13.7,0c-2.8-2.8-3.5-7-2.1-10.5l-13-13v34.3
	c0.9,0.5,1.8,1.1,2.6,1.8c3.8,3.8,3.8,9.9,0,13.7c-3.8,3.8-9.9,3.8-13.7,0s-4.1-9.9-0.3-13.7c0.9-0.9,1.9-1.6,2.9-2.1V47.3
	c-1-0.5-1.9-1.2-2.9-2.1c-2.9-2.9-3.4-7.1-1.9-10.6L41,20.3L3.2,58.1C0,61.3,0,66.4,3.2,69.6l55.1,55.1c3.2,3.2,8.3,3.2,11.5,0
	l54.9-54.9C127.9,66.7,127.9,61.6,124.7,58.4L124.7,58.4z"/>
</svg>
