<?xml version="1.0" encoding="utf-8"?>
<!-- Generator: Adobe Illustrator 22.1.0, SVG Export Plug-In . SVG Version: 6.00 Build 0)  -->
<svg version="1.1" id="Layer_1" xmlns="http://www.w3.org/2000/svg" xmlns:xlink="http://www.w3.org/1999/xlink" x="0px" y="0px"
	 viewBox="0 0 128 128" style="enable-background:new 0 0 128 128;" xml:space="preserve">
<style type="text/css">
	.st0{fill:url(#SVGID_1_);}
</style>
<linearGradient id="SVGID_1_" gradientUnits="userSpaceOnUse" x1="64.1" y1="125.5382" x2="64.1" y2="2.4973">
	<stop  offset="0" style="stop-color:#7EA2B9"/>
	<stop  offset="0" style="stop-color:#688DA6"/>
	<stop  offset="0" style="stop-color:#6990A6"/>
	<stop  offset="1" style="stop-color:#493698"/>
</linearGradient>
<path class="st0" d="M37,35.5c0.9,9.2,1.7,18.4,2.6,27.8c1.5-2.5,2.5-4.9,4.1-6.8c1.5-1.8,3.3-3.5,5.4-4.7c2.6-1.5,6.1-0.1,7,2.6
	c0.2,0.7-0.3,1.7-0.5,2.6c-0.6-0.3-1.5-0.5-1.9-1.1c-1.8-2.2-2.9-2.5-4.9-0.6c-3.7,3.6-5.8,8.1-6.6,13.1c-0.2,1,0.5,2.1,0.7,3.1
	c1-0.3,2.2-0.5,3-1.1c2.7-2,4.3-4.7,5.2-7.9c0.2-0.7,1.3-1.1,1.9-1.7c0.3,0.7,1,1.4,0.9,2c-1.4,4.8-2.9,9.6-4.5,14.4
	c-0.2,0.5-1.1,0.7-1.6,1.1c-0.2-0.6-0.7-1.3-0.6-1.9c0.2-1.4,0.6-2.7,0.9-3.9l-7.2,3.3c0.4,4.6,0.8,9.8,1.3,15c0.4,4,1,5,4.9,5.7
	c4.5,0.9,9.2,1.4,13.8,1.8c6.8,0.5,13.6-0.1,20.2-1.9c2.5-0.7,3.5-2.3,3.6-4.7c0.2-2.2,0.5-4.5,0.8-6.7c0.5-4.4,1-8.8,1.5-13.4
	c-1.7,1.1-3,2.2-4.5,2.7c-1.1,0.4-2.5-0.2-3.8-0.3c0.2-1.2,0.2-2.5,0.8-3.5c0.9-1.6,2.2-3,3.4-4.5l-0.5-0.6
	c-0.8,0.5-1.8,0.8-2.4,1.5c-1.2,1.4-2.3,2.9-3.1,4.5c-1.3,2.7-2.3,5.6-3.5,8.4c-0.5,1.2-1,3.1-2.7,2.4c-1.8-0.8-0.5-2.4-0.1-3.5
	c0.7-1.8,1.6-3.6,2.2-5c-1.7,0.2-3.5,0.5-5.3,0.6c-0.8,0.1-1.6-0.3-2.3-0.1c-2,0.9-3.3,0.6-3.8-1.7c-0.9,0.6-1.7,1.4-2.7,1.7
	c-1.1,0.3-2.7,0.5-3.5-0.1c-0.7-0.5-0.9-2.2-0.7-3.2c0.5-2,1.3-3.9,2.1-5.9c0.5-1.2,1-3.1,2.7-2.3s0.2,2.2-0.2,3.3
	c-0.6,1.7-1.2,3.4-1.8,5.1l1,0.6c0.9-0.8,2.1-1.4,2.7-2.4c1-1.6,1.7-3.5,2.7-5.1c0.4-0.7,1.3-1.1,2-1.6c0.1,0.9,0.5,1.7,0.4,2.6
	c-0.1,0.8-0.7,1.6-1,2.4c-0.4,1.2-0.8,2.5-1.2,4c2,0.1,2.9-0.8,3.5-2.3c1.8-4.8,3.7-9.6,5.7-14.3c0.3-0.8,1.5-1.3,2.3-1.9
	c0.1,1,0.5,2.1,0.2,2.9c-1.6,4.3-3.5,8.6-5.2,12.9c-0.3,0.7-0.4,1.5-0.6,2.3c3.1-1.4,5.6-2.9,6.5-6.1c0.2-0.8,1.2-1.4,1.8-2.1
	l1.4,1.5c0.4-0.4,0.8-0.8,1.3-1.1c1.5-0.9,3.1-1.8,4.6-0.3c1.6,1.5,0.4,3-0.4,4.3c-0.9,1.4-2,2.7-3.1,4.1c2.3-1.5,5.5-2.2,5.9-5.4
	c1-7.9,1.9-15.7,2.8-23.6c0.3-2.3,0.4-4.7,0.6-7.1C72.8,39.9,55,40,37,35.5z M44.8,96.8c0.9,2.3,2.2,4.6,2.6,7
	c0.7,5.1,0.9,10.4,1.4,15.6c0.1,0.8,0.6,1.8,1.2,2.1c9,4.9,18,5.7,27.2,0.4c1.4-0.8,1.6-1.8,1.8-3.3c0.9-7.2-1.1-14.8,3.5-21.6
	C69.6,100.2,57.1,100.3,44.8,96.8z M75.8,36.7c4.4-0.4,8.7-1.4,13-2.3c0.8-0.2,1.5-0.8,2.3-1.2c-1-0.9-1.9-1.3-2.8-1.4
	c-4.5-0.5-9.1-0.9-13.6-1.5c-0.7-0.1-1.9-0.9-1.9-1.1c1.3-4,1.3-8.5,4.3-11.8c3.8-4.2,7.6-8.4,11.4-12.6c-2.8-3-2.9-3-5.4-0.4
	c-1.4,1.5-2.8,3.2-4.3,4.5c-5.8,5-9.9,11-10.7,18.9c-0.2,1.8-1.2,2.5-3.1,2.5c-6.3,0.1-12.5,0.3-18.8,0.7c-3.1,0.2-6.1,1-9.2,1.5
	v1.1c1.9,0.6,3.8,1.4,5.8,1.7C53.7,37.5,64.7,37.8,75.8,36.7z M72.3,34c-2.5,2-4.5,2-6.5,0H72.3z"/>
</svg>
