<?xml version="1.0" encoding="utf-8"?>
<!-- Generator: Adobe Illustrator 22.1.0, SVG Export Plug-In . SVG Version: 6.00 Build 0)  -->
<svg version="1.1" id="Layer_1" xmlns="http://www.w3.org/2000/svg" xmlns:xlink="http://www.w3.org/1999/xlink" x="0px" y="0px"
	 viewBox="0 0 128 128" style="enable-background:new 0 0 128 128;" xml:space="preserve">
<style type="text/css">
	.st0{fill:url(#SVGID_1_);}
</style>
<linearGradient id="SVGID_1_" gradientUnits="userSpaceOnUse" x1="64" y1="126.5" x2="64" y2="2">
	<stop  offset="0" style="stop-color:#7EA2B9"/>
	<stop  offset="0" style="stop-color:#688DA6"/>
	<stop  offset="0" style="stop-color:#6990A6"/>
	<stop  offset="1" style="stop-color:#493698"/>
</linearGradient>
<path class="st0" d="M9,2l10,112.1l44.9,12.4l45-12.4L119,2H9z M98.2,28.5l-0.6,7.2L97.3,39H44.6l1.3,14H96l-0.3,3.5l-3.2,36.1
	l-0.2,2.3L64,102.6l0,0l0,0l-28.2-7.4L33.9,74h13.8l1,10.9L64,89l0,0v-0.5l15.4-3.9L81,67H33.3l-3.4-38.1L29.5,25h68.9
	C98.5,25,98.2,28.5,98.2,28.5z"/>
</svg>
