<?xml version="1.0" encoding="utf-8"?>
<!-- Generator: Adobe Illustrator 22.1.0, SVG Export Plug-In . SVG Version: 6.00 Build 0)  -->
<svg version="1.1" id="Layer_1" xmlns="http://www.w3.org/2000/svg" xmlns:xlink="http://www.w3.org/1999/xlink" x="0px" y="0px"
	 viewBox="0 0 128 128" style="enable-background:new 0 0 128 128;" xml:space="preserve">
<style type="text/css">
	.st0{fill:url(#SVGID_1_);}
</style>
<linearGradient id="SVGID_1_" gradientUnits="userSpaceOnUse" x1="64" y1="128.5" x2="64" y2="-0.5">
	<stop  offset="0" style="stop-color:#7EA2B9"/>
	<stop  offset="0" style="stop-color:#688DA6"/>
	<stop  offset="0" style="stop-color:#6990A6"/>
	<stop  offset="1" style="stop-color:#493698"/>
</linearGradient>
<path class="st0" d="M-0.5-0.5v129h129v-129H-0.5z M67.7,109.4c-1.9,3.9-5.5,6.4-9.7,7.6c-6.5,1.5-12.7,0.6-17.3-2.1
	c-3.1-1.9-5.5-4.8-7.1-8.2l9.8-6c0.1,0,0.3,0.5,0.7,1.1c1.3,2.1,2.3,3.6,4.5,4.6c2.1,0.7,6.7,1.2,8.4-2.5c1.1-1.9,0.7-7.9,0.7-14.5
	c0-10.4,0-20.8,0-31.1h12.1c0,11.3,0.1,22.1,0,33.2C69.9,98.3,70.5,104.3,67.7,109.4z M117.8,106c-4.2,14.4-27.6,14.8-37,5.3
	c-2-2.2-3.2-3.4-4.4-6c5-2.9,5-2.9,9.8-5.7c2.6,4,5.1,6.3,9.4,7.2c5.9,0.7,11.9-1.3,10.6-7.6c-1.4-5.1-12.1-6.4-19.5-11.9
	c-7.4-5-9.2-17.1-3.1-24.1c2-2.6,5.5-4.5,9.2-5.4l3.8-0.5c7.3-0.1,11.9,1.8,15.2,5.5c0.9,0.9,1.7,2,3.1,4.2
	c-3.9,2.5-3.9,2.5-9.5,6.1c-1.2-2.6-3.2-4.2-5.3-4.9c-3.2-1-7.3,0.1-8.2,3.5c-0.3,1.1-0.2,2,0.2,3.8c1.3,3,5.7,4.3,9.7,6.1
	c11.4,4.6,15.2,9.6,16.2,15.5C119.1,102.2,118,105.5,117.8,106z"/>
</svg>
