<?xml version="1.0" encoding="utf-8"?>
<!-- Generator: Adobe Illustrator 22.1.0, SVG Export Plug-In . SVG Version: 6.00 Build 0)  -->
<svg version="1.1" id="Layer_1" xmlns="http://www.w3.org/2000/svg" xmlns:xlink="http://www.w3.org/1999/xlink" x="0px" y="0px"
	 viewBox="0 0 128 128" style="enable-background:new 0 0 128 128;" xml:space="preserve">
<style type="text/css">
	.st0{fill:url(#SVGID_1_);}
</style>
<linearGradient id="SVGID_1_" gradientUnits="userSpaceOnUse" x1="64.05" y1="128" x2="64.05" y2="0.1">
	<stop  offset="0" style="stop-color:#7EA2B9"/>
	<stop  offset="0" style="stop-color:#688DA6"/>
	<stop  offset="0" style="stop-color:#6990A6"/>
	<stop  offset="1" style="stop-color:#493698"/>
</linearGradient>
<path class="st0" d="M50,41.4c-3.7-0.9-7.5-0.6-11.4,0c0,6.9,0,13.7,0,20.4c0,0.3,0.5,0.9,0.9,1c4.3,0.6,8.6,0.6,12.6-1.3
	c4.2-2,6.3-6.3,5.7-11.3C57.3,45.6,54.7,42.5,50,41.4z M128.1,64.1V2.4c0-2.1,0-2.3-2-2.3H2.5C0.5,0.1,0,0.3,0,2.3v123.6
	c0,2.1,0.3,2.1,2.2,2.1c41.2,0,82.6,0,123.8,0c1.6,0,2-0.4,2-2C128,105.3,128.1,84.7,128.1,64.1z M56.2,70c-5.7,2-11.5,2.1-17.6,1.7
	v22.9H27.4v-1.4c0-19.2-0.1-38.4-0.1-57.6c0-1.6,0.2-2.4,2-2.5c8.5-0.9,16.9-1.8,25.3,0.1c9.1,2.1,14.3,8.1,14.7,16.4
	C69.8,59.8,65.3,66.8,56.2,70z M101.3,83c-0.4,5.9-3.7,9.7-9.2,11.6c-7.3,2.5-14.5,1.9-21.6-0.9c-1.2-0.5-1.4-1-1-2.2
	c0.7-2.2,1.2-4.4,1.7-6.4c3,0.9,5.9,2,8.8,2.5c2.1,0.4,4.3,0.2,6.5-0.2c1.9-0.3,3.3-1.6,3.6-3.6c0.3-2.1-0.3-3.9-2.1-5
	c-1.5-0.9-3.1-1.5-4.6-2.2c-2.5-1.2-5.1-2.1-7.4-3.6c-9-5.8-6.1-16.7-0.1-20.7c3.2-2.2,6.8-3.2,10.6-3.3c4.5-0.2,8.8,0.6,13,2.7
	l-2.2,7.9c-1.8-0.6-3.4-1.4-5.2-1.8c-2.1-0.4-4.2-0.6-6.3-0.4c-2.8,0.2-4.4,2.2-4.4,4.5c0,1.4,0.5,2.6,1.7,3.3
	c1.7,1,3.5,1.8,5.3,2.6c1.9,0.9,4,1.6,5.8,2.6C99.1,73.1,101.7,77.3,101.3,83z"/>
</svg>
