<?xml version="1.0" encoding="utf-8"?>
<!-- Generator: Adobe Illustrator 22.1.0, SVG Export Plug-In . SVG Version: 6.00 Build 0)  -->
<svg version="1.1" id="Layer_1" xmlns="http://www.w3.org/2000/svg" xmlns:xlink="http://www.w3.org/1999/xlink" x="0px" y="0px"
	 viewBox="0 0 128 128" style="enable-background:new 0 0 128 128;" xml:space="preserve">
<style type="text/css">
	.st0{fill:url(#SVGID_1_);}
</style>
<linearGradient id="SVGID_1_" gradientUnits="userSpaceOnUse" x1="63.85" y1="111" x2="63.85" y2="17">
	<stop  offset="0" style="stop-color:#7EA2B9"/>
	<stop  offset="0" style="stop-color:#688DA6"/>
	<stop  offset="0" style="stop-color:#6990A6"/>
	<stop  offset="1" style="stop-color:#493698"/>
</linearGradient>
<path class="st0" d="M1.2,56.2c0,0.7,0.2,1.2,0.3,1.6c0.8,2.9,2.4,5.5,4.3,7.7c2.7,3.3,6.1,5.9,9.6,8.4c3,2.1,6,4.2,9,6.4
	c0.5,0.4,1,0.8,1.6,1.2c-0.5,0.3-0.9,0.5-1.3,0.7c-4,2-7.8,4.3-11.3,7c-2.1,1.6-4.2,3.4-5.6,5.7c-2.3,3.7-3.1,7.6-1.4,11.8
	c0.5,1.2,1.3,2.3,2.4,3.1c0.4,0.3,0.7,0.5,1.2,0.6c1.1,0.2,2.1,0.4,3.2,0.6h3c3.4-0.3,6.4-1.4,9.2-3.4c4.3-3,7.2-7,8.5-12.1
	c0.9-3.7,0.9-7.4-0.1-11.2c-0.1-0.3-0.2-0.7-0.4-1s-0.3-0.7-0.5-1.1l6.9-4l0.1,0.1c-0.1,0.4-0.3,0.8-0.4,1.2c-0.8,3-1.4,6-1.2,9.1
	c0.2,3.3,1.1,6.4,3.1,9.1c1.6,2.2,5.3,2.3,6.9,0.1c0.6-0.8,1.2-1.6,1.6-2.5c1.1-2.3,2.2-4.7,3.2-7l0.2-0.4C53.2,89,53.1,90,53.1,91
	c-0.1,1.5,0,3,0.5,4.5c0.4,1.2,1.2,2.2,2.6,2.3c1,0.1,1.7-0.3,2.5-0.9c1.1-0.9,2-2,2.7-3.2c1.9-3.5,3.9-7,5.6-10.5
	c1.9-3.9,3.5-7.9,5.2-11.8l0.3-0.7c0.4,1.6,0.7,3.2,1.2,4.7c0.6,1.7,1.4,3.4,2.2,5.1c0.4,0.8,0.3,1.3-0.2,1.9
	c-2.3,2.7-4.5,5.5-6.7,8.2c-0.5,0.6-1,1.2-1.4,1.9c-0.2,0.4-0.4,0.9-0.5,1.4c-0.1,0.9,0.4,1.8,1.4,2c0.9,0.2,1.8,0.3,2.7,0.2
	c3.1-0.2,5.9-1.3,8.4-3.2c3.2-2.4,4.3-5.6,3.5-9.5c-0.2-1-0.6-2.1-0.9-3.1c-0.2-0.5-0.2-0.8,0.1-1.2c2.6-3.7,4.8-7.6,6.8-11.6
	c0.1-0.2,0.2-0.3,0.3-0.5c0.7,3.4,1.7,6.8,3.4,9.8c-0.9,0.9-1.8,1.7-2.6,2.6c-1.8,1.9-3.4,4-4.2,6.6c-0.3,1.1-0.6,2.2-0.5,3.4
	c0.2,1.8,1.7,3,3.5,2.6c3.9-0.9,7.2-2.7,9.6-5.9c1.6-2.2,1.8-4.6,1.1-7.1c-0.2-0.7-0.4-1.4-0.7-2.2c1-0.3,1.9-0.6,2.8-0.9
	c5-1.1,9.9-0.9,14.7,0.9c2.8,1.1,5.1,2.8,6.4,5.6c1.6,3.4,0.7,6.6-2.5,8.7c-0.3,0.2-0.6,0.4-0.9,0.6c-0.2,0.2-0.2,0.5-0.2,0.7
	c0,0.1,0.3,0.3,0.5,0.3c1,0,1.9-0.6,2.7-1.1c2-1.4,3.5-3.3,3.9-5.8l0.1-0.2l-0.1-1.6c0-0.1,0-0.2,0-0.3c-0.4-3.6-2.4-6.5-5.2-8.7
	c-3.3-2.6-7.2-3.6-11.2-3.8c-3.3-0.1-6.6,0.4-9.8,1.5c-0.9,0.3-1.8,0.7-2.7,1.1c-0.1-0.2-0.3-0.4-0.4-0.6c-0.9-1.9-2-3.7-2.3-5.9
	c-0.2-1.5-0.4-3.1,0-4.6s0.8-2.9,1.2-4.4c0.2-0.7,0.1-1.2-0.6-1.5c-0.2-0.1-0.5-0.2-0.8-0.3c-1.8-0.3-3.5-0.1-5.2,0.4
	c-0.6,0.2-1,0.5-1.2,1.2c-0.1,0.4-0.2,0.7-0.3,1.1c-0.4,1.6-0.8,3.2-1.5,4.6c-1.8,3.7-3.8,7.3-5.9,10.9c-0.2,0.4-0.5,0.8-0.8,1.2
	c-0.7-1.5-1.5-2.9-1.8-4.5c-0.3-1.8-0.5-3.7,0-5.5c0.3-1.4,0.8-2.7,1.2-4c0.2-0.6,0.1-1-0.5-1.3c-0.3-0.2-0.6-0.3-0.9-0.4
	c-1.8-0.3-3.6-0.1-5.4,0.4c-0.5,0.2-0.8,0.5-1,1.1c-0.5,1.7-0.9,3.3-1.6,4.9c-2.8,6.4-5.6,12.7-8.5,19c-0.6,1.3-1.3,2.6-2,3.9
	c-0.2,0.3-0.4,0.6-0.6,0.9c-0.2-0.2-0.2-0.3-0.2-0.5c0-0.8-0.1-1.7,0.1-2.4c0.5-2.4,1-4.7,1.6-7.1c0.5-1.9,1-3.9,1.5-5.8
	c0.2-0.6,0.2-1.3-0.3-1.8c-0.8-0.9-2.4-1.1-3.4-0.4l-0.4,0.2L58,72c0.2-1.5,0.2-3-0.2-4.4c-0.5-1.8-1.8-2.9-3.7-2.8
	c-0.9,0-1.8,0.2-2.6,0.5c-3.4,1.3-6,3.7-8.3,6.6c-0.2,0.3-0.5,0.5-0.8,0.7c-2.9,1.6-5.8,3.2-8.7,4.8L30.6,79
	c-0.9-0.8-1.7-1.7-2.5-2.4c-2.7-2.2-5.5-4.4-8.2-6.6c-2.4-1.9-4.8-4-6.6-6.6c-1.3-1.9-2.2-4-2.3-6.4c-0.1-3,0.8-5.8,2.3-8.4
	c2-3.3,4.7-5.9,7.6-8.3c3.1-2.5,6.5-4.7,10-6.6c4.9-2.7,9.9-5.2,15.3-6.8c5.5-1.6,11.2-2.6,17-1.9c2.3,0.3,4.5,0.8,6.5,1.9
	c1.6,0.9,2.8,2,3.4,3.7s0.6,3.5,0.2,5.2c-0.8,3.5-2.8,6.4-5.2,9c-4,4.3-8.9,7.2-14.4,9.1c-3.2,1.1-6.4,1.8-9.8,2.1
	c-2.7,0.2-5.4,0-8-1c-1.7-0.6-3.2-1.6-4.4-3c-0.2-0.2-0.5-0.5-0.9-0.3s-0.5,0.6-0.3,1c0.2,0.6,0.4,1.3,0.8,1.8
	c0.9,1.4,2.1,2.4,3.5,3.3c2.6,1.7,5.6,2.2,8.7,2.4c4.6,0.2,9.2-0.5,13.7-1.7c6.4-1.8,11.9-4.9,16.4-9.9c3.7-4.1,6.4-8.8,6.9-14.4
	c0.3-2.7,0-5.4-1.3-7.9c-1.4-2.7-3.6-4.7-6.3-6.1c-3.9-2-8-3.2-12.3-3.2H56c-5.2,0-10.2,1.5-15.1,3.3c-3.7,1.3-7.3,2.9-10.9,4.7
	c-7.7,3.8-14.8,8.5-20.7,14.8c-3,3.2-5.5,6.7-6.9,10.8c-0.4,1.2-0.8,2.5-1.1,3.7 M29.1,90.4c-0.3,4.5-2.4,8.1-5.7,11
	c-1.9,1.6-4,2.8-6.5,3.2c-0.9,0.1-1.8,0.2-2.7-0.2c-1.2-0.5-1.5-1.6-1.5-2.8c0-1.9,0.6-3.6,1.5-5.2c1.2-2.1,2.9-3.7,4.7-5.2
	c2.9-2.4,6-4.4,9.3-6.2l0.2-0.1C29,86.7,29.3,88.5,29.1,90.4z M54.3,71c-0.2,1.4-0.5,2.8-0.9,4.2c-1.4,4.8-3.3,9.4-5.3,14
	c-0.4,0.8-0.9,1.6-1.4,2.4c-0.1,0.1-0.2,0.2-0.3,0.3c-0.6,0.6-1.1,0.5-1.4-0.2c-0.3-0.9-0.5-1.8-0.7-2.7c-0.1-0.6-0.1-1.3-0.1-1.9
	c0-4.5,1.4-8.6,3.7-12.4c1-1.6,2-3.1,3.6-4.1c0.5-0.3,1-0.6,1.6-0.7C53.9,69.7,54.4,70.1,54.3,71z M71.5,92.8l6.2-7.2
	C77.9,88.3,73.3,93.7,71.5,92.8z M91.2,88c-0.4,0.2-0.9,0.4-1.4,0.7c-0.4,0.2-0.5,0-0.6-0.4c0-0.2,0-0.5,0.1-0.7
	c0.8-2.9,2.4-5.4,4.6-7.5l0.2-0.1C95.2,83.1,94,86.4,91.2,88z"/>
</svg>
